<svg width="24" height="24" viewBox="0 0 24 24" fill="none" xmlns="http://www.w3.org/2000/svg">
<path d="M12 0C5.38667 0 0 5.38667 0 12C0 18.6133 5.38667 24 12 24C18.6133 24 24 18.6133 24 12C24 5.38667 18.6133 0 12 0ZM18.3067 8.93333L11.24 16C11.1067 16.1333 10.9333 16.2 10.76 16.2C10.6 16.2 10.4267 16.1333 10.2933 16L5.69333 11.4C5.44 11.1467 5.44 10.72 5.69333 10.4667C5.96 10.2 6.37333 10.2 6.64 10.4667L10.76 14.5867L17.36 8C17.6267 7.73333 18.04 7.73333 18.3067 8C18.56 8.25333 18.56 8.68 18.3067 8.93333Z" fill="#E6D0A5"/>
</svg>
