<svg width="32" height="32" viewBox="0 0 32 32" fill="none" xmlns="http://www.w3.org/2000/svg">
<g clip-path="url(#clip0_409_138)">
<path d="M16 32C24.8366 32 32 24.8366 32 16C32 7.16344 24.8366 0 16 0C7.16344 0 0 7.16344 0 16C0 24.8366 7.16344 32 16 32Z" fill="#EF4C45"/>
<path fill-rule="evenodd" clip-rule="evenodd" d="M20.7975 31.2454C21.1346 31.1457 21.4684 31.0349 21.7982 30.9131C22.2949 30.7197 22.7817 30.5016 23.2566 30.2596C23.732 30.0175 24.1949 29.7517 24.6437 29.4633C25.0926 29.1754 25.5267 28.8653 25.9446 28.5341C26.3628 28.2023 26.7641 27.8499 27.1471 27.4781C27.5299 27.1063 27.8938 26.7157 28.2375 26.3076C28.581 25.8994 28.9039 25.4742 29.2049 25.0338C29.5065 24.5934 29.7858 24.1383 30.0419 23.6701C30.2979 23.202 30.5304 22.7214 30.7385 22.2301C30.9335 21.7651 31.1064 21.2911 31.2566 20.8098L21.2234 10.7765C20.5386 10.0887 19.7246 9.54301 18.8282 9.17084C17.9317 8.79868 16.9706 8.60737 16 8.60791C14.1108 8.60791 12.2215 9.3316 10.7766 10.7765C10.0895 11.4618 9.54437 12.2759 9.1724 13.1723C8.80044 14.0686 8.60898 15.0295 8.60898 15.9999C8.60898 16.9703 8.80044 17.9312 9.1724 18.8276C9.54437 19.7239 10.0895 20.538 10.7766 21.2233L20.7975 31.2454Z" fill="#DF2209"/>
<path fill-rule="evenodd" clip-rule="evenodd" d="M16 8.60791C17.8892 8.60791 19.7785 9.3316 21.2234 10.7765C21.9105 11.4618 22.4556 12.2759 22.8276 13.1723C23.1996 14.0686 23.391 15.0295 23.391 15.9999C23.391 16.9703 23.1996 17.9312 22.8276 18.8276C22.4556 19.7239 21.9105 20.538 21.2234 21.2233C20.5381 21.9104 19.724 22.4556 18.8277 22.8275C17.9313 23.1995 16.9704 23.3909 16 23.3909C15.0296 23.3909 14.0687 23.1995 13.1724 22.8275C12.276 22.4556 11.4619 21.9104 10.7766 21.2233C10.0895 20.538 9.54437 19.7239 9.1724 18.8276C8.80044 17.9312 8.60898 16.9703 8.60898 15.9999C8.60898 15.0295 8.80044 14.0686 9.1724 13.1723C9.54437 12.2759 10.0895 11.4618 10.7766 10.7765C11.4614 10.0886 12.2754 9.54292 13.1718 9.17075C14.0682 8.79858 15.0294 8.6073 16 8.60791ZM19.0191 12.3335C18.8588 12.3387 18.7069 12.4062 18.5957 12.5218L15.9951 15.131L13.3846 12.5291C13.3277 12.4705 13.2596 12.4239 13.1845 12.3919C13.1093 12.3598 13.0285 12.3431 12.9468 12.3426C12.8651 12.3422 12.7842 12.358 12.7086 12.3891C12.6331 12.4203 12.5645 12.4662 12.5069 12.5241C12.4493 12.582 12.4038 12.6509 12.3731 12.7266C12.3424 12.8023 12.327 12.8833 12.328 12.965C12.3289 13.0467 12.3461 13.1274 12.3785 13.2024C12.411 13.2774 12.458 13.3452 12.5169 13.4018L15.1262 16.0048L12.5231 18.6153C11.9188 19.195 12.8135 20.0898 13.3932 19.4855L15.9963 16.8725L18.6068 19.4756C19.1865 20.0799 20.0812 19.1851 19.4769 18.6055L16.8677 16.0024L19.4671 13.3919C19.5569 13.3055 19.6184 13.1938 19.6434 13.0717C19.6683 12.9496 19.6556 12.8227 19.6069 12.708C19.5582 12.5932 19.4758 12.496 19.3706 12.4291C19.2654 12.3622 19.1424 12.3289 19.0179 12.3335H19.0191Z" fill="white"/>
</g>
<defs>
<clipPath id="clip0_409_138">
<rect width="32" height="32" fill="white"/>
</clipPath>
</defs>
</svg>
